<svg width="50" height="50" viewBox="0 0 50 50" fill="none" xmlns="http://www.w3.org/2000/svg">
<rect width="50" height="50" rx="4" fill="#3DAD18"/>
<path fill-rule="evenodd" clip-rule="evenodd" d="M23.0317 26.9724C27.0208 30.9604 27.9258 26.3467 30.4656 28.8848C32.9143 31.3328 34.3216 31.8232 31.2192 34.9247C30.8306 35.237 28.3616 38.9943 19.6846 30.3197C11.0065 21.644 14.7616 19.1724 15.074 18.7839C18.1839 15.6738 18.6659 17.0894 21.1145 19.5373C23.6544 22.0765 19.0427 22.9844 23.0317 26.9724Z" fill="white"/>
<path d="M24.7094 20.2028C24.7356 20.1948 24.7921 20.1928 24.8345 20.1983C24.9085 20.2082 24.9492 20.2394 25.7233 20.8759L26.5345 21.5432L29.0128 18.5669C30.9056 16.2938 31.5061 15.5868 31.5537 15.572C31.6787 15.5348 31.722 15.5627 32.476 16.1905C32.8622 16.5121 33.1899 16.7959 33.2142 16.8325C33.3236 16.9833 33.4841 16.7718 30.7718 20.0289L28.2922 23.0068L29.0976 23.6857L29.9031 24.3645L29.9275 24.4528C29.9593 24.5745 29.918 24.657 29.8108 24.6682C29.6699 24.6869 25.8076 24.4855 25.7265 24.4559C25.533 24.3873 25.5428 24.4226 25.0697 22.3568C24.827 21.2985 24.626 20.397 24.6256 20.3505C24.6221 20.2606 24.6402 20.2295 24.7094 20.2028Z" fill="white"/>
</svg>
