<svg width="50" height="50" viewBox="0 0 50 50" fill="none" xmlns="http://www.w3.org/2000/svg">
<rect width="50" height="50" rx="2" fill="#AF0CE9"/>
<path d="M24.4353 12.0475C24.2242 12.1224 24.0573 12.2893 24.0029 12.4766C23.9824 12.5413 23.9313 12.8545 23.8905 13.1712L23.8122 13.7501L23.3559 13.9068C23.1039 13.9919 22.7293 14.1485 22.5216 14.2541C22.3104 14.3665 22.1334 14.4346 22.1129 14.421C21.5306 13.9647 21.1356 13.682 21.0403 13.648C20.6895 13.522 20.4716 13.6275 19.9165 14.1996C19.5862 14.5367 19.4772 14.673 19.4466 14.7785C19.3478 15.119 19.4023 15.2484 19.9097 15.9057L20.2537 16.3586L20.1515 16.5356C19.9949 16.7978 19.7973 17.2576 19.6952 17.5845C19.6441 17.7445 19.593 17.9046 19.576 17.9454C19.5522 18.0067 19.4841 18.0237 18.9426 18.0918C18.2786 18.1804 18.1526 18.2212 17.9823 18.4154C17.8189 18.6026 17.7984 18.7218 17.8121 19.4267L17.8223 20.0601L17.9244 20.2235C18.0811 20.4755 18.2173 20.53 18.9426 20.622L19.5488 20.7003L19.6952 21.1259C19.8518 21.5891 19.9846 21.8955 20.1515 22.1748L20.2571 22.3552L19.9097 22.8047C19.5147 23.3155 19.4057 23.5028 19.4057 23.6765C19.4057 23.9591 19.4602 24.0477 19.9233 24.5176C20.3694 24.9739 20.5056 25.0692 20.7304 25.0999C20.9619 25.1305 21.1152 25.0556 21.6464 24.6504L22.1572 24.2588L22.4262 24.4086C22.6986 24.5619 23.2537 24.79 23.6113 24.8956L23.8156 24.9569L23.8871 25.529C23.9279 25.8422 23.9722 26.1419 23.9858 26.193C24.0199 26.3428 24.1629 26.5233 24.3195 26.6118C24.4524 26.6902 24.5 26.6936 25.0789 26.7038C25.777 26.7174 25.9166 26.6936 26.1039 26.5301C26.2878 26.3701 26.3389 26.2134 26.424 25.5494L26.4989 24.9535L26.8769 24.8377C27.0846 24.773 27.4592 24.6198 27.7112 24.4938L28.1675 24.2656L28.6136 24.6095C29.1278 25.0114 29.3049 25.1101 29.499 25.1101C29.7373 25.1067 29.9178 24.9943 30.3299 24.5891C30.7964 24.1294 30.8951 23.9762 30.8985 23.7139C30.8985 23.4756 30.8509 23.387 30.415 22.8184L30.0676 22.3655L30.2856 21.933C30.4048 21.698 30.558 21.3234 30.6295 21.1021L30.7589 20.6969L31.3719 20.6186C32.0189 20.5368 32.1517 20.4926 32.3185 20.3189C32.482 20.1486 32.516 19.9818 32.516 19.3824C32.516 19.0862 32.499 18.7729 32.4786 18.6912C32.4309 18.5039 32.2504 18.2894 32.0802 18.2212C32.0087 18.194 31.6783 18.1327 31.348 18.0918L30.7453 18.0101L30.7078 17.8739C30.6261 17.547 30.4763 17.1622 30.2788 16.7706C30.1494 16.5152 30.0779 16.3313 30.0949 16.3109C30.8372 15.371 30.9428 15.1872 30.9019 14.9181C30.8679 14.7036 30.8066 14.6253 30.3537 14.1656C29.8633 13.6684 29.7169 13.5799 29.4411 13.6105C29.2334 13.6378 29.1653 13.6752 28.6136 14.1009L28.1675 14.4448L27.7384 14.2303C27.5035 14.1111 27.1289 13.9579 26.9041 13.8863L26.4989 13.7569L26.4206 13.161C26.3389 12.5242 26.2844 12.3438 26.1277 12.1973C25.9507 12.0305 25.7906 11.9998 25.147 11.9998C24.7452 12.0032 24.5239 12.0169 24.4353 12.0475ZM25.8213 12.5413C25.8655 12.5889 25.9064 12.7933 25.9779 13.3313C26.0392 13.7944 26.0937 14.0702 26.1243 14.1009C26.1482 14.1281 26.3287 14.1928 26.5194 14.2507C26.9927 14.3869 27.3911 14.5538 27.7861 14.7751C27.9666 14.8773 28.1471 14.9624 28.1811 14.9624C28.2152 14.9624 28.508 14.7615 28.8281 14.5197C29.2572 14.1962 29.4377 14.077 29.5092 14.077C29.6454 14.077 30.4388 14.8671 30.4388 15.0033C30.4388 15.068 30.3094 15.2655 29.9961 15.6809C29.7544 16.001 29.5535 16.2973 29.5535 16.3381C29.5535 16.3756 29.6284 16.539 29.7203 16.6991C29.9451 17.0839 30.1085 17.4789 30.2515 17.9556C30.3162 18.1702 30.3877 18.3643 30.4116 18.3915C30.4388 18.4154 30.7555 18.4766 31.188 18.5345C31.8316 18.6231 31.9269 18.6435 31.978 18.7082C32.0325 18.7729 32.0393 18.8614 32.0393 19.3722C32.0393 19.9171 32.0359 19.9613 31.9712 20.0192C31.9167 20.0703 31.7362 20.1044 31.1778 20.1793C30.7589 20.2372 30.4388 20.2951 30.4116 20.3223C30.3877 20.3461 30.323 20.5232 30.2652 20.7139C30.1289 21.1872 29.9621 21.5857 29.7407 21.9807C29.6386 22.1611 29.5535 22.3416 29.5535 22.3791C29.5535 22.4199 29.7544 22.7128 29.9961 23.0363C30.2992 23.4381 30.4388 23.6492 30.4388 23.7105C30.4388 23.7786 30.3401 23.8978 30.0234 24.2145C29.6726 24.5687 29.5909 24.6334 29.5024 24.6334C29.4241 24.6334 29.264 24.5278 28.8213 24.1907C28.5046 23.9455 28.2152 23.748 28.1777 23.748C28.1437 23.748 27.9972 23.8161 27.8542 23.8978C27.4047 24.1634 26.9757 24.3371 26.3491 24.5108C26.2435 24.5414 26.138 24.5857 26.1141 24.6129C26.0937 24.6436 26.0324 24.9875 25.9779 25.3825C25.9064 25.9206 25.8655 26.1215 25.8213 26.1691C25.7668 26.227 25.7123 26.2338 25.1606 26.2338C24.5954 26.2338 24.5545 26.2304 24.4932 26.1623C24.4455 26.1079 24.4115 25.9376 24.3366 25.4064C24.2855 25.0284 24.2276 24.6845 24.2106 24.6436C24.1867 24.5891 24.1186 24.5516 23.979 24.5142C23.3559 24.3439 22.8417 24.1328 22.4058 23.8672C22.2968 23.8025 22.1742 23.748 22.1368 23.748C22.0993 23.748 21.8065 23.9455 21.4898 24.1907C21.0232 24.5448 20.8836 24.6334 20.7985 24.6334C20.7066 24.6334 20.6316 24.5789 20.3047 24.2554C20.0936 24.0443 19.9063 23.8331 19.8859 23.7821C19.845 23.6561 19.862 23.622 20.3558 22.9818C20.5806 22.6856 20.7678 22.4131 20.7678 22.3757C20.7678 22.3416 20.7168 22.2224 20.6521 22.1169C20.3694 21.6504 20.1243 21.051 19.9846 20.4892C19.9642 20.404 19.9199 20.3291 19.8791 20.3087C19.8416 20.2882 19.5011 20.2304 19.1163 20.1759C18.5783 20.1044 18.4046 20.0703 18.3501 20.0192C18.2854 19.9613 18.282 19.9171 18.282 19.3552C18.282 18.7933 18.2854 18.7491 18.3501 18.6912C18.4046 18.6435 18.5817 18.606 19.1129 18.5345C19.4909 18.4869 19.8348 18.4256 19.8757 18.4051C19.9199 18.3813 19.9642 18.3098 19.9846 18.2212C20.1277 17.6628 20.3831 17.0328 20.6487 16.6003C20.7134 16.4914 20.7678 16.3722 20.7678 16.3381C20.7678 16.3041 20.5703 16.0146 20.3252 15.6945C19.9608 15.2144 19.8825 15.0884 19.8825 14.9965C19.8825 14.8943 19.9302 14.833 20.2843 14.4789C20.6282 14.1349 20.6997 14.077 20.7951 14.077C20.9007 14.077 20.9279 14.0941 21.8507 14.799C21.9699 14.8875 22.0959 14.9624 22.13 14.9624C22.164 14.9624 22.3581 14.8705 22.5624 14.7581C22.9745 14.5299 23.3048 14.3903 23.7747 14.2609C23.945 14.2098 24.1152 14.1554 24.1459 14.1383C24.2242 14.1009 24.2548 13.9647 24.3468 13.2462C24.4047 12.7898 24.4421 12.6196 24.4898 12.5583C24.5511 12.4766 24.5613 12.4766 25.1572 12.4766C25.7123 12.4766 25.7668 12.4834 25.8213 12.5413Z" fill="white" stroke="white" stroke-width="0.3"/>
<path d="M24.7638 14.8896C24.3177 15.0496 23.9908 15.4276 23.9193 15.8669C23.8989 15.9963 24.1168 20.4436 24.1577 20.7296C24.2054 21.0701 24.5016 21.4107 24.8421 21.5196C25.3291 21.6729 25.8467 21.4549 26.068 21.002L26.16 20.8147L26.286 18.4174C26.3779 16.6773 26.4052 15.9725 26.3813 15.8431C26.3098 15.4583 26.034 15.1007 25.6798 14.9373C25.421 14.8181 25.0192 14.7976 24.7638 14.8896ZM25.5062 15.3731C25.6764 15.4617 25.8331 15.6319 25.8978 15.8056C25.9523 15.9452 25.9489 16.0746 25.8297 18.3221C25.7173 20.4504 25.6969 20.7058 25.639 20.8216C25.4857 21.1212 25.0805 21.203 24.8081 20.9884C24.614 20.8386 24.6208 20.8658 24.4948 18.5605C24.3552 15.9384 24.3552 15.9078 24.4573 15.7137C24.6583 15.3357 25.1248 15.1824 25.5062 15.3731Z" fill="white" stroke="white" stroke-width="0.3"/>
<path d="M22.1522 16.4014C21.8287 16.7317 21.5836 17.0757 21.3724 17.5013C20.562 19.129 20.9195 21.1586 22.234 22.4015C22.7516 22.8885 22.8639 22.8851 22.9967 22.3709C23.0376 22.2006 23.0989 22.0065 23.1296 21.9316C23.1636 21.8601 23.1874 21.7715 23.1874 21.7341C23.1874 21.6966 23.0989 21.5706 22.9933 21.4548C22.3668 20.7874 22.0569 19.868 22.1659 19.0133C22.234 18.4991 22.394 18.07 22.6835 17.6443L22.8197 17.4434L22.7992 17.0144C22.7686 16.3946 22.7448 16.2584 22.6732 16.1869C22.5473 16.0609 22.4485 16.1018 22.1522 16.4014ZM22.1829 17.5694C22.0092 17.8555 21.8662 18.2028 21.7708 18.557C21.6721 18.9281 21.6823 19.8169 21.7879 20.2085C21.9207 20.7091 22.2476 21.3254 22.5643 21.6762C22.6767 21.8022 22.6801 21.809 22.6392 21.9418C22.6154 22.0201 22.5847 22.0814 22.5711 22.0814C22.5575 22.0814 22.4757 21.9997 22.3872 21.9009C21.8968 21.3595 21.5699 20.6955 21.4473 20.0042C21.3861 19.6466 21.3929 18.9928 21.4678 18.6421C21.5836 18.0836 21.8151 17.5626 22.142 17.1267L22.3191 16.8884L22.3293 17.0995C22.3395 17.3004 22.3293 17.3277 22.1829 17.5694Z" fill="white" stroke="white" stroke-width="0.3"/>
<path d="M27.6325 16.2006C27.5576 16.2755 27.5508 16.3164 27.527 16.8681L27.5031 17.4538L27.6632 17.6921C27.9935 18.1825 28.1569 18.7375 28.1569 19.3573C28.1569 20.1507 27.922 20.7603 27.3737 21.3971C27.0945 21.7172 27.0979 21.6967 27.2477 22.1496C27.2954 22.2892 27.3465 22.4663 27.3635 22.5412C27.401 22.7217 27.5201 22.7932 27.6802 22.7285C27.8368 22.6638 28.4157 22.0781 28.6269 21.7648C29.519 20.464 29.6212 18.8057 28.8959 17.4027C28.5928 16.8136 27.9833 16.1223 27.7721 16.1223C27.7381 16.1223 27.6768 16.1564 27.6325 16.2006ZM28.208 17.1677C28.5349 17.6172 28.7801 18.2165 28.872 18.7886C28.9401 19.2007 28.8993 19.943 28.7903 20.3414C28.6847 20.716 28.4941 21.1383 28.2965 21.4277C28.1331 21.6695 27.7892 22.0815 27.7517 22.0815C27.7381 22.0815 27.7074 22.0202 27.6836 21.9453L27.6427 21.8057L27.8675 21.5265C28.1467 21.1791 28.4021 20.6683 28.5213 20.2257C28.5996 19.926 28.6098 19.8204 28.6132 19.3573C28.6132 18.9248 28.5996 18.7784 28.5383 18.5503C28.443 18.1825 28.2897 17.8181 28.1093 17.5287C27.973 17.3141 27.9662 17.2835 27.9799 17.0996C27.9867 16.9941 27.9969 16.9055 28.0037 16.9055C28.0105 16.9055 28.1024 17.0247 28.208 17.1677Z" fill="white" stroke="white" stroke-width="0.3"/>
<path d="M24.8731 21.8184C24.6415 21.8967 24.5291 21.9682 24.3657 22.1521C24.0013 22.5573 24.0218 23.1839 24.4134 23.5789C24.8152 23.9773 25.4384 23.9943 25.8538 23.613C26.1024 23.3848 26.1977 23.1703 26.1977 22.8297C26.2011 22.5301 26.1262 22.3394 25.9287 22.1214C25.6801 21.8456 25.2068 21.7094 24.8731 21.8184ZM25.5201 22.3666C25.6699 22.4824 25.7414 22.6356 25.7414 22.8468C25.7414 23.0341 25.6801 23.1635 25.5371 23.2861C25.3873 23.4086 25.2 23.4529 25.0195 23.4086C24.4917 23.2724 24.4032 22.6084 24.8697 22.3121C25.0297 22.2134 25.3498 22.2372 25.5201 22.3666Z" fill="white" stroke="white" stroke-width="0.3"/>
<path d="M20.6734 26.1833C20.401 26.2583 19.771 26.5239 19.4066 26.718C17.3226 27.8247 15.746 29.8304 15.2079 32.0608C15.0343 32.7657 14.9968 33.1097 15.0002 33.9303C15.0002 34.6591 15.0036 34.7135 15.0956 35.037C15.4429 36.3038 16.3827 37.3356 17.578 37.7613C18.2999 38.0201 17.6802 37.9996 25.1615 37.9996C32.6429 37.9996 32.0232 38.0201 32.7451 37.7613C33.8654 37.3628 34.7985 36.3923 35.1526 35.2618C35.3127 34.751 35.3535 34.4207 35.3331 33.7771C35.2718 32.0132 34.744 30.5319 33.6475 29.0608C33.2797 28.567 32.5714 27.8519 32.1185 27.5182C31.291 26.9087 29.837 26.1663 29.4658 26.1663C29.2479 26.1663 29.1798 26.2038 28.6928 26.592C28.0696 27.0925 27.7053 27.3343 27.2626 27.5454C26.0129 28.138 24.8619 28.2129 23.6258 27.7804C22.9107 27.5318 22.1717 27.0891 21.586 26.5613C21.1433 26.1595 20.9935 26.0982 20.6734 26.1833ZM21.2863 26.9189C22.1479 27.6748 23.1354 28.1856 24.1808 28.4206C24.4771 28.4853 24.6269 28.4989 25.1615 28.4989C25.6962 28.4989 25.846 28.4853 26.1423 28.4206C27.1468 28.1959 27.9436 27.7906 28.8835 27.0278C29.0878 26.8644 29.2989 26.7009 29.3534 26.6635L29.4556 26.6022L29.7689 26.7282C30.5453 27.0449 31.4817 27.5897 32.0913 28.0835C33.3342 29.0846 34.3728 30.8043 34.7065 32.415C34.9176 33.4127 34.9381 34.2504 34.7746 34.9179C34.4511 36.2425 33.2627 37.3084 31.887 37.5059C31.6894 37.5331 29.7995 37.5399 24.9913 37.5331L18.368 37.5229L18.0786 37.4412C17.0604 37.1619 16.2295 36.4775 15.78 35.5546C15.5076 34.9894 15.3986 34.39 15.4395 33.6749C15.5008 32.5512 15.7323 31.6386 16.2023 30.6783C16.9719 29.1051 18.208 27.8451 19.7301 27.0755C20.1456 26.8678 20.7721 26.6124 20.8777 26.609C20.9084 26.609 21.0922 26.7486 21.2863 26.9189Z" fill="white" stroke="white" stroke-width="0.3"/>
</svg>
