<svg width="50" height="50" viewBox="0 0 50 50" fill="none" xmlns="http://www.w3.org/2000/svg">
<rect width="50" height="50" rx="2" fill="#808000"/>
<circle cx="25" cy="25" r="13" stroke="white" stroke-width="2"/>
<path d="M18.1914 21V29H16.5V21H18.1914Z" fill="white"/>
<path d="M21.0283 21L22.9619 27.0781H23.0361L24.9736 21H26.8486L24.0908 29H21.9111L19.1494 21H21.0283Z" fill="white"/>
<path d="M27.8115 29V21H30.9678C31.5719 21 32.0876 21.1081 32.5146 21.3242C32.9443 21.5378 33.2712 21.8411 33.4951 22.2344C33.7217 22.625 33.835 23.0846 33.835 23.6133C33.835 24.1445 33.7204 24.6016 33.4912 24.9844C33.262 25.3646 32.93 25.6562 32.4951 25.8594C32.0628 26.0625 31.5394 26.1641 30.9248 26.1641H28.8115V24.8047H30.6514C30.9743 24.8047 31.2425 24.7604 31.4561 24.6719C31.6696 24.5833 31.8285 24.4505 31.9326 24.2734C32.0394 24.0964 32.0928 23.8763 32.0928 23.6133C32.0928 23.3477 32.0394 23.1237 31.9326 22.9414C31.8285 22.7591 31.6683 22.6211 31.4521 22.5273C31.2386 22.431 30.9691 22.3828 30.6436 22.3828H29.5029V29H27.8115ZM32.1318 25.3594L34.1201 29H32.2529L30.3076 25.3594H32.1318Z" fill="white"/>
</svg>
