<svg width="50" height="50" viewBox="0 0 50 50" fill="none" xmlns="http://www.w3.org/2000/svg">
<rect width="50" height="50" rx="2" fill="#63C02E"/>
<path d="M26.4238 13.3004C26.2549 13.4694 26.0671 13.8449 26.0108 14.1452C25.9169 14.6522 25.8418 14.6897 25.0345 14.6897C23.1007 14.6897 20.6413 15.6472 18.8952 17.0553C18.163 17.6561 17.7124 17.8814 17.2806 17.8814C16.5484 17.8814 16.0978 18.1254 16.2668 18.4258C16.3607 18.5573 17.2994 18.6324 18.9891 18.6324C20.9792 18.6324 21.6363 18.6887 21.8053 18.8952C21.9555 19.0642 22.0118 20.1155 21.9743 22.2183L21.9179 25.2973L21.1106 25.41C20.2094 25.5226 19.9466 25.7855 19.9466 26.5552C19.9466 26.8556 19.9091 27.0809 19.8527 27.0809C19.7964 27.0809 19.2519 26.7242 18.6699 26.2736C17.6186 25.4851 17.581 25.4851 15.7223 25.3912L13.8449 25.2973V22.0118V18.7262L14.5583 18.6699C15.3093 18.6136 15.5158 18.1818 14.8775 17.9752C14.4269 17.8251 13.7698 18.0128 13.3379 18.4071C13.0375 18.6511 13 19.0829 13 22.0493C13 25.1471 13.0188 25.41 13.3755 25.7667C13.582 25.9732 13.9575 26.1422 14.2203 26.1422C14.6334 26.1422 14.6897 26.2173 14.6897 26.8181C14.6897 28.9583 16.0603 31.8309 17.9753 33.7459C21.6363 37.4069 27.1748 38.0452 31.6807 35.3229C33.0513 34.4968 34.1777 33.3516 33.8961 33.07C33.7459 32.9198 33.5019 33.0512 32.9762 33.5018C32.075 34.3091 31.1175 34.9662 30.8734 34.9662C30.6857 34.9662 29.3339 33.314 29.3339 33.0512C29.3339 32.9761 30.16 32.901 31.1738 32.901C33.7459 32.901 33.6521 33.0324 33.6521 29.0334C33.6521 26.0295 33.6708 25.8042 34.1214 24.9406C34.6283 23.9456 34.7222 22.988 34.3843 22.0118C34.1402 21.3547 34.3655 21.0167 34.9663 21.1294C35.4732 21.2045 36.1303 23.2697 36.243 25.0532C36.3556 27.1935 36.0552 28.6955 35.1165 30.6105C34.7034 31.4741 34.403 32.2063 34.4594 32.2814C34.7222 32.5443 35.1728 32.0937 35.6797 31.0799C36.7311 28.9771 36.9376 28.0947 36.9188 25.7667C36.9188 23.8517 36.8625 23.4574 36.3744 22.1995C35.8675 20.8853 35.8299 20.5661 35.736 17.2994C35.6422 14.2016 35.5858 13.751 35.2667 13.3943C34.9287 13.0188 34.741 13 30.8171 13C27.3062 13 26.6867 13.0375 26.4238 13.3004ZM34.8724 17.1304V20.4159L33.0137 20.4723L31.1363 20.5286L29.9535 21.3734L28.7707 22.2183V21.6738C28.7707 20.9041 28.3952 20.5286 27.5503 20.4723L26.7993 20.4159L26.7055 19.3833C26.6491 18.8201 26.5553 18.3695 26.4802 18.3883C26.3863 18.4258 26.2549 18.4446 26.1422 18.4446C25.8418 18.4446 25.9169 20.1906 26.2549 20.66C26.9308 21.6363 25.8418 23.1382 24.4525 23.1382C24.0395 23.1382 23.495 23.0444 23.2322 22.913C22.7816 22.7064 22.7628 22.6313 22.7628 21.1481C22.7628 20.2845 22.8567 19.1956 22.9881 18.745C23.1946 17.9565 23.082 17.4308 22.4248 15.9851C22.3685 15.835 23.7015 15.5158 25.0533 15.328L25.9357 15.2154L25.992 16.2104C26.0296 16.999 26.1234 17.243 26.3863 17.2806C26.6679 17.3369 26.7055 17.1679 26.7055 15.666C26.7055 14.746 26.7618 13.9387 26.8369 13.8636C26.912 13.8073 28.7519 13.7698 30.911 13.7885L34.8724 13.8449V17.1304ZM22.1245 17.0553C22.5375 18.0316 22.4812 18.2756 21.8992 18.0691C21.6363 17.9565 20.8666 17.8814 20.1719 17.8814C19.4021 17.8814 19.0079 17.8063 19.1205 17.7124C19.5336 17.2806 21.5237 16.2104 21.6739 16.3231C21.7865 16.3794 21.9743 16.6986 22.1245 17.0553ZM28.0197 21.8804C28.0197 23.0068 28.6205 23.2321 29.5967 22.4811C30.6857 21.6363 30.7795 22.0493 29.8033 23.4386C29.4465 23.9456 29.1462 24.4712 29.1462 24.5839C29.1462 24.7716 28.5829 24.828 26.9495 24.828C25.1847 24.828 24.6966 24.8843 24.415 25.1471C24.2272 25.3161 24.077 25.5602 24.077 25.7104C24.077 25.8418 23.7954 26.2173 23.4387 26.5364C22.6689 27.2123 22.2183 28.32 22.575 28.6392C22.7252 28.7894 22.8379 28.7894 22.8754 28.6767C23.1383 28.0196 23.6452 27.1935 23.8517 27.1184C24.0207 27.0621 24.077 27.6629 24.077 29.653C24.077 31.0799 24.1521 32.3565 24.246 32.5067C24.3399 32.6569 24.7904 32.8259 25.241 32.8822C26.0483 32.9949 26.0483 32.9949 26.1422 33.8397C26.2736 34.9286 26.6304 35.0037 27.7944 34.1401L28.6956 33.483L29.409 34.4217C29.8033 34.9474 30.0849 35.398 30.0473 35.4356C30.0098 35.4543 29.578 35.6421 29.0523 35.8111C27.6442 36.2992 24.828 36.3931 23.326 35.9988C20.8666 35.3605 18.501 33.7459 17.2243 31.8121C16.7174 31.0611 16.7174 31.0048 17.0365 30.6481C17.2055 30.4603 17.6186 30.235 17.9189 30.1787C18.3695 30.066 18.5761 30.1411 18.9703 30.5166C19.665 31.1737 20.6225 31.3052 21.4298 30.8921C22.2371 30.4791 22.5563 29.9909 22.2559 29.6906C22.0869 29.5216 21.8992 29.5779 21.4486 29.9722C20.6788 30.6105 20.1531 30.5917 19.2895 29.8971C18.4259 29.2212 18.1818 29.2024 17.0929 29.7844L16.248 30.235L15.9476 29.3526C15.7223 28.6955 15.253 26.5928 15.253 26.1985C15.253 26.1609 15.7035 26.1422 16.2668 26.1422C17.168 26.1422 17.3933 26.236 18.5573 27.0809C19.2707 27.5878 19.8903 28.0196 19.9466 28.0196C20.2845 28.0008 20.5474 27.5878 20.6413 26.9119C20.7351 26.1985 20.7915 26.1422 21.3547 26.1422C22.162 26.1422 22.6126 25.5977 22.7252 24.4712C22.8003 23.5701 22.8191 23.5513 23.2697 23.7203C24.7529 24.2835 26.5928 23.4011 27.0997 21.8804C27.3813 21.0167 28.0197 20.9979 28.0197 21.8804ZM33.5582 21.824C34.0839 22.8191 33.7647 25.1659 33.1451 24.9406C32.9949 24.8843 32.2064 24.828 31.3803 24.828C30.2539 24.828 29.8971 24.7716 29.8971 24.5651C29.8971 24.4337 30.0286 24.2084 30.1975 24.0582C30.6481 23.6827 31.2114 22.4624 31.2114 21.824C31.2114 21.2608 31.2114 21.2608 32.244 21.2608C33.1827 21.2608 33.2953 21.2983 33.5582 21.824ZM32.9011 28.8457C32.9011 31.6431 32.8635 32.1312 32.6007 32.2251C32.4317 32.2814 31.5869 32.3378 30.7044 32.3378C29.1462 32.3378 29.0898 32.3565 28.0385 33.0887C27.4564 33.5018 26.912 33.8397 26.8369 33.8397C26.7618 33.8397 26.7055 33.5957 26.7055 33.314C26.7055 32.6382 26.3863 32.3378 25.6729 32.3378C24.6966 32.3378 24.6403 32.1688 24.6403 28.8645C24.6403 27.1935 24.6966 25.7667 24.7717 25.7104C24.828 25.6353 26.6867 25.5789 28.9021 25.5789H32.9011V28.8457Z" fill="white"/>
<path d="M30.5924 14.4268C30.5173 14.5019 30.461 14.7085 30.461 14.8962C30.461 15.1778 30.2733 15.2529 29.4847 15.2905C28.715 15.328 28.4709 15.4219 28.4334 15.666C28.377 15.91 28.4897 16.0039 28.8464 16.0039C29.2219 16.0039 29.3909 16.1916 29.8039 17.074C30.3484 18.2944 30.3108 18.3695 29.0154 18.9327C28.3583 19.2143 28.2268 19.5147 28.6587 19.6837C28.9403 19.7964 29.9729 19.3458 30.5173 18.8576C30.799 18.5948 30.8741 18.5948 31.1744 18.8576C31.7001 19.3458 32.7327 19.7964 33.0144 19.6837C33.4462 19.5147 33.3148 19.2143 32.6764 18.9327C31.3622 18.3695 31.3246 18.2944 31.8691 17.074C32.2822 16.1916 32.4511 16.0039 32.8266 16.0039C33.1833 16.0039 33.296 15.91 33.2397 15.666C33.2021 15.4219 32.958 15.328 32.2071 15.2905C31.381 15.2341 31.2308 15.1778 31.1744 14.8399C31.1181 14.4268 30.8177 14.2203 30.5924 14.4268ZM31.3434 16.6047C31.212 16.9426 30.9679 17.2242 30.8365 17.2242C30.7051 17.2242 30.461 16.9426 30.3296 16.6047L30.0855 16.0039H30.8365H31.5875L31.3434 16.6047Z" fill="white"/>
<path d="M26.65 26.8367C26.2745 27.1934 26.5561 27.4563 27.3634 27.4563C28.8466 27.4563 28.6964 28.5077 27.2132 28.6203C26.6688 28.6578 26.4247 28.7705 26.4247 28.9582C26.4247 29.1648 26.6875 29.2586 27.3634 29.3337C28.152 29.4088 28.3021 29.4839 28.3021 29.8031C28.3021 30.1035 28.152 30.1974 27.5699 30.2349C27.1757 30.2725 26.7626 30.2161 26.65 30.1035C26.4059 29.8594 25.7676 29.8406 25.7676 30.0659C25.7676 30.479 26.7814 31.0234 27.5699 31.0234C28.2083 31.0234 28.4523 30.9296 28.7715 30.5165C28.9968 30.2349 29.1282 29.8594 29.0907 29.6717C29.0156 29.3901 29.1095 29.3337 29.6351 29.3337C30.2172 29.3337 30.2735 29.3901 30.2735 29.8782C30.2735 30.6104 30.4425 31.0234 30.7616 31.0234C30.9681 31.0234 31.0245 30.6479 31.0245 29.2399C31.0245 27.6065 31.062 27.4563 31.3812 27.4563C31.8318 27.4563 31.982 27.2498 31.7942 26.9118C31.5877 26.5926 29.6727 26.7053 29.56 27.0432C29.5225 27.1747 29.6539 27.3436 29.8792 27.4C30.1608 27.4751 30.2735 27.644 30.2735 28.0383C30.2735 28.5264 30.2172 28.5827 29.6164 28.5827C28.9968 28.5827 28.9593 28.5452 29.0719 28.1322C29.2409 27.4375 28.4336 26.7053 27.4948 26.7053C27.1006 26.7053 26.7063 26.7616 26.65 26.8367Z" fill="white"/>
<path d="M17.5437 19.7965C17.3371 20.0406 15.8164 24.002 15.8164 24.2836C15.8164 24.6591 16.3984 24.415 16.6049 23.9832C16.7927 23.5702 16.9241 23.5139 17.9004 23.5139C18.8767 23.5139 18.9705 23.5514 19.0832 23.9832C19.2146 24.5089 19.7591 24.6216 19.7591 24.1146C19.7591 23.6265 18.182 19.7026 17.9567 19.6275C17.8441 19.59 17.6563 19.6651 17.5437 19.7965ZM18.2759 21.918L18.595 22.7629H17.8441C17.3184 22.7629 17.1119 22.6878 17.187 22.5188C17.2245 22.4062 17.3747 21.9743 17.5249 21.5989C17.8065 20.7916 17.8441 20.8103 18.2759 21.918Z" fill="white"/>
</svg>
