<svg width="50" height="50" viewBox="0 0 50 50" fill="none" xmlns="http://www.w3.org/2000/svg">
<rect width="50" height="50" rx="2" fill="#E86C30"/>
<g clip-path="url(#clip0_5593_15327)">
<path d="M23.3868 15.6313C23.3118 15.6782 22.004 16.9016 20.4806 18.3454L17.7149 20.9704H15.7556C14.0681 20.9751 13.7681 20.9844 13.6368 21.0501C13.3181 21.2001 13.3321 21.0126 13.3321 25.3344C13.3321 29.6563 13.3181 29.4688 13.6368 29.6188C13.7681 29.6844 14.0681 29.6938 15.7556 29.6985H17.7149L20.4806 32.3235C22.004 33.7672 23.3118 34.9907 23.3868 35.0376C23.6962 35.2391 24.1134 35.0985 24.2071 34.7657C24.2727 34.5266 24.2727 16.1422 24.2071 15.9032C24.1134 15.5704 23.6962 15.4297 23.3868 15.6313Z" fill="white"/>
<path d="M33.1828 15.9648C32.9953 16.0164 32.0953 16.9211 32.0437 17.1086C31.9781 17.3383 32.0578 17.507 32.4937 18.0367C33.9468 19.7945 34.8421 21.8898 35.0765 24.0789C35.1421 24.6648 35.1421 26.0054 35.0765 26.5914C34.8421 28.7804 33.9468 30.8758 32.4937 32.6336C31.8562 33.407 31.8609 33.4773 32.5593 34.1851C33.2437 34.8695 33.3984 34.8883 33.9046 34.3492C35.0999 33.0742 36.2156 31.0726 36.7687 29.1929C37.1578 27.8758 37.3078 26.807 37.3078 25.3351C37.3078 23.8633 37.1578 22.7945 36.7687 21.4773C36.2156 19.5976 35.0999 17.5961 33.9046 16.3211C33.5859 15.9836 33.4218 15.9039 33.1828 15.9648Z" fill="white"/>
<path d="M30.0898 19.0574C30.0008 19.0808 29.7523 19.2917 29.443 19.6058C28.9602 20.098 28.9414 20.1214 28.9414 20.323C28.9414 20.4964 28.9789 20.5761 29.157 20.8105C29.7523 21.5886 30.1977 22.4042 30.4367 23.1308C30.6852 23.8996 30.7414 24.3167 30.7414 25.3339C30.7414 26.1589 30.7273 26.3605 30.6383 26.7636C30.3805 27.9261 29.9586 28.8027 29.157 29.8574C28.9789 30.0917 28.9414 30.1714 28.9414 30.3449C28.9414 30.5464 28.9602 30.5699 29.443 31.0621C30.1883 31.8167 30.3523 31.8308 30.8961 31.1605C31.3742 30.5652 31.6742 30.0871 32.0352 29.3417C32.682 28.0058 32.9445 26.848 32.9445 25.3339C32.9445 24.2324 32.8086 23.3792 32.4758 22.3574C32.3117 21.8605 31.7773 20.7636 31.4727 20.2949C31.1258 19.7699 30.582 19.1042 30.4695 19.0714C30.2773 19.0199 30.2258 19.0152 30.0898 19.0574Z" fill="white"/>
<path d="M26.9489 22.1661C26.7286 22.2645 25.8661 23.1739 25.8286 23.352C25.8005 23.4739 25.838 23.577 26.0348 23.9614C26.3114 24.4958 26.4052 24.8427 26.4052 25.3348C26.4052 25.827 26.3114 26.1739 26.0348 26.7083C25.838 27.0927 25.8005 27.1958 25.8286 27.3177C25.8708 27.5145 26.7848 28.452 27.0005 28.5223C27.3427 28.6395 27.6942 28.302 28.0973 27.4723C28.5098 26.6192 28.6692 25.7333 28.5708 24.8473C28.4958 24.2005 28.3739 23.7645 28.0973 23.1973C27.8255 22.6395 27.5395 22.2598 27.3192 22.1661C27.1317 22.0864 27.127 22.0864 26.9489 22.1661Z" fill="white"/>
</g>
<defs>
<clipPath id="clip0_5593_15327">
<rect width="24" height="24" fill="white" transform="translate(13.334 13.334)"/>
</clipPath>
</defs>
</svg>
