<svg width="50" height="50" viewBox="0 0 50 50" fill="none" xmlns="http://www.w3.org/2000/svg">
<rect width="50" height="50" rx="2" fill="#FF4DAD"/>
<g clip-path="url(#clip0_5593_15347)">
<path d="M14.8596 12.0711C13.9506 12.2945 13.2143 13.102 13.067 14.0313C12.9959 14.4832 12.9959 35.5168 13.067 35.9688C13.2193 36.9234 13.9963 37.7512 14.9358 37.9441C15.1186 37.9797 16.449 38 19.0541 38C22.8729 38 22.9084 38 23.0405 37.8934C23.2131 37.7563 23.2233 37.5023 23.0557 37.35L22.9389 37.2383L18.983 37.2281L15.0221 37.2129L14.7529 37.091C14.4178 36.9387 14.0217 36.5172 13.91 36.1871C13.8236 35.9383 13.7424 35.3594 13.7932 35.3594C13.8084 35.3594 13.9354 35.4355 14.0775 35.532C14.2197 35.6285 14.4686 35.7605 14.626 35.8266L14.9205 35.9434H21.3952H27.8698L28.1592 35.8266C28.3217 35.7605 28.5706 35.6285 28.7128 35.527L28.9768 35.3492L28.9514 35.7199C28.9108 36.3293 28.596 36.8066 28.0577 37.0707L27.7682 37.2129L26.1686 37.2281C25.2901 37.2332 24.5182 37.2484 24.4573 37.2637C24.3913 37.2789 24.3049 37.3602 24.2592 37.4465C24.1932 37.5785 24.1932 37.6293 24.244 37.7512C24.2745 37.8375 24.3456 37.9238 24.3963 37.9492C24.4471 37.9797 25.1479 38 26.0518 38C27.7479 38 27.951 37.9746 28.4589 37.7156C28.9413 37.477 29.3932 36.9641 29.6065 36.4258C29.6878 36.2227 29.6979 35.9332 29.7233 33.8105L29.7487 31.4238L33.0749 31.3984C35.5683 31.3781 36.4265 31.3578 36.5077 31.3121C36.6804 31.2105 36.8733 30.9566 36.9343 30.7484C37.0054 30.4793 37.0054 21.0848 36.9292 20.8105C36.8581 20.5516 36.5585 20.252 36.2995 20.1809C36.1624 20.1453 35.0757 20.125 32.9124 20.125H29.7233V17.0578C29.7233 14.1887 29.7182 13.9703 29.6268 13.6809C29.3831 12.8938 28.7382 12.2895 27.9104 12.0762C27.6616 12.0102 26.9202 12 22.878 12H18.1401L18.0182 12.127C17.8658 12.2742 17.8557 12.452 17.9877 12.6145L18.0842 12.7363L22.9288 12.7617L27.7682 12.7871L28.0577 12.9293C28.596 13.1934 28.9108 13.6707 28.9514 14.275L28.9768 14.6406L28.7128 14.468C28.5706 14.3715 28.3217 14.2395 28.1643 14.1734C27.8698 14.0566 27.8647 14.0566 25.4272 14.0566H22.9897L22.7815 14.1938C22.6647 14.2699 22.487 14.4578 22.3854 14.6152C22.0756 15.0824 21.5881 15.2805 21.0905 15.1484C20.8467 15.0824 20.5674 14.8285 20.3237 14.4527C20.0545 14.0516 20.1155 14.0566 17.358 14.0566C14.9256 14.0566 14.9205 14.0566 14.626 14.1734C14.4686 14.2395 14.2197 14.3715 14.0775 14.468C13.9354 14.5645 13.8084 14.6406 13.7932 14.6406C13.7424 14.6406 13.8236 14.0617 13.91 13.8129C14.0217 13.4828 14.4178 13.0613 14.7529 12.909C14.9865 12.8074 15.1287 12.7871 15.8498 12.7617C16.6471 12.7363 16.6877 12.7313 16.7791 12.6145C16.9111 12.452 16.901 12.2742 16.7486 12.127C16.6319 12.0051 16.6065 12 15.8752 12.0051C15.4639 12.0051 15.0068 12.0355 14.8596 12.0711ZM19.7194 14.9047C19.7752 14.9656 19.8209 15.0367 19.8209 15.057C19.8209 15.0824 19.9377 15.2246 20.0748 15.3719C20.4506 15.768 20.8366 15.9305 21.3952 15.9355C21.7709 15.9355 21.8674 15.9152 22.1569 15.7781C22.5631 15.5902 22.8272 15.3617 22.9998 15.0672C23.0709 14.9453 23.1827 14.8285 23.2436 14.8133C23.3045 14.798 24.3456 14.793 25.5592 14.8031L27.7682 14.8184L28.0577 14.9605C28.3725 15.1129 28.6417 15.382 28.8194 15.7172C28.9362 15.9355 28.9362 15.9559 28.9514 18.0277L28.9667 20.1199L26.7678 20.1352C24.2846 20.1504 24.31 20.1504 24.0459 20.5465L23.9088 20.7496L23.8834 22.3137C23.8682 23.3801 23.8377 23.898 23.8022 23.9336C23.7666 23.9691 23.2791 24.2688 22.7155 24.609C22.1467 24.9492 21.6389 25.2945 21.578 25.3707C21.4358 25.5586 21.4307 25.9801 21.5678 26.1832C21.6237 26.2645 22.0909 26.5793 22.7205 26.9602C23.3045 27.3105 23.8022 27.6406 23.8327 27.6914C23.8631 27.7473 23.8834 28.3465 23.8834 29.1996C23.8834 29.9766 23.9038 30.6926 23.9342 30.784C23.9901 30.982 24.1932 31.2207 24.4014 31.3273C24.5131 31.3832 24.9448 31.3984 26.7526 31.3984H28.9667L28.9514 32.7289L28.9362 34.0645L28.7839 34.3387C28.6163 34.6434 28.3471 34.8922 28.0018 35.0648L27.7682 35.1816H21.3952H15.0221L14.7326 35.0395C14.367 34.8617 14.0166 34.4809 13.8947 34.1254C13.8084 33.8715 13.8033 33.4398 13.8033 25C13.8033 16.5906 13.8084 16.1234 13.8947 15.8746C13.9963 15.5801 14.301 15.2094 14.5752 15.0418C14.9408 14.8133 15.1033 14.798 17.419 14.798C19.6127 14.793 19.6127 14.793 19.7194 14.9047ZM36.1624 20.9477C36.2081 20.9934 36.2233 22.1309 36.2233 25.7617C36.2233 28.3719 36.203 30.5402 36.1827 30.5758C36.1472 30.6266 34.9589 30.6367 30.4038 30.6266L24.6706 30.6113L24.6452 29.0625C24.6147 27.3461 24.6198 27.3461 24.2694 27.0414C24.1678 26.9551 23.7057 26.6555 23.2385 26.3762C22.7663 26.0969 22.3549 25.848 22.3143 25.8227C22.2686 25.7871 22.5123 25.6195 23.203 25.2031C24.2135 24.6039 24.4877 24.3754 24.5842 24.0453C24.6249 23.9133 24.6452 23.3699 24.6452 22.4254C24.6452 21.3895 24.6604 20.9934 24.7061 20.9477C24.7924 20.8613 36.0761 20.8613 36.1624 20.9477Z" fill="white"/>
<path d="M17.3066 17.0476C17.2254 17.0831 17.1238 17.1695 17.0934 17.2355C16.9359 17.5402 15.25 22.0851 15.25 22.207C15.25 22.3746 15.443 22.5624 15.6156 22.5624C15.8238 22.5624 15.9355 22.4152 16.1387 21.8871L16.3266 21.3945L17.5199 21.4046L18.7082 21.4199L18.9063 21.9277C19.018 22.207 19.1449 22.466 19.1957 22.4964C19.4242 22.6691 19.7695 22.4914 19.7695 22.207C19.7695 22.0851 18.175 17.7839 17.9363 17.2609C17.8805 17.1492 17.6164 16.9714 17.4996 16.9765C17.4793 16.9816 17.393 17.0121 17.3066 17.0476ZM17.9668 19.4597C18.2055 20.0792 18.3985 20.5972 18.3985 20.6124C18.3985 20.6226 17.9973 20.6328 17.5098 20.6328C17.0223 20.6328 16.6211 20.6226 16.6211 20.6124C16.6211 20.6023 16.7734 20.196 16.9563 19.7085C17.1391 19.2261 17.3371 18.7081 17.393 18.5609C17.4488 18.4136 17.5047 18.2968 17.5149 18.307C17.525 18.3222 17.7281 18.8402 17.9668 19.4597Z" fill="white"/>
<path d="M15.3306 24.7574C15.1478 25.0164 15.29 25.3211 15.615 25.382C15.7064 25.4023 16.331 25.4074 16.9963 25.3973C18.1947 25.382 18.2049 25.382 18.3013 25.2602C18.4181 25.118 18.4232 24.9098 18.3166 24.7574C18.2404 24.6457 18.2302 24.6457 16.8236 24.6457C15.417 24.6457 15.4068 24.6457 15.3306 24.7574Z" fill="white"/>
<path d="M15.5047 27.1176C15.2406 27.2141 15.1593 27.5492 15.3523 27.7422C15.4488 27.8387 15.5199 27.8438 17.8406 27.8438C20.1613 27.8438 20.2324 27.8387 20.3289 27.7422C20.466 27.6051 20.4609 27.3309 20.3238 27.2039C20.2223 27.1125 20.1004 27.1074 17.8965 27.0973C16.6219 27.0922 15.5453 27.1023 15.5047 27.1176Z" fill="white"/>
<path d="M15.3834 29.677C15.2108 29.8141 15.2006 30.068 15.3682 30.2203L15.485 30.332H18.9635C22.3963 30.332 22.4471 30.332 22.5538 30.2305C22.7163 30.0781 22.7061 29.8141 22.5335 29.677C22.4014 29.5703 22.3608 29.5703 18.9584 29.5703C15.5561 29.5703 15.5155 29.5703 15.3834 29.677Z" fill="white"/>
<path d="M15.362 32.1754C15.2046 32.343 15.2147 32.5816 15.3823 32.7137C15.5143 32.8203 15.555 32.8203 18.9573 32.8203C22.3597 32.8203 22.4003 32.8203 22.5323 32.7137C22.705 32.5766 22.7151 32.3125 22.5526 32.1602C22.446 32.0586 22.3952 32.0586 18.9573 32.0586H15.4686L15.362 32.1754Z" fill="white"/>
<path d="M29.2402 23.3456L28.1738 23.9854H27.3715C26.4777 23.9854 26.3254 24.0209 26.102 24.285L25.9648 24.4526V25.7424C25.9648 27.144 25.975 27.2202 26.2492 27.4334C26.3762 27.5299 26.4473 27.5401 27.2445 27.5401H28.1027L29.1793 28.185C30.1391 28.7588 30.2813 28.8299 30.4945 28.8299C30.7738 28.835 30.9719 28.7131 31.1039 28.4491C31.1852 28.2916 31.1953 28.0581 31.1953 25.7729C31.1953 23.0713 31.2004 23.1323 30.9211 22.8733C30.8348 22.792 30.7129 22.7463 30.5504 22.7311C30.3117 22.7057 30.2762 22.726 29.2402 23.3456ZM30.4082 27.987C30.3981 28.0022 29.9969 27.7788 29.5195 27.4944L28.6563 26.9764V25.7729L28.6613 24.5694L29.5348 24.0565L30.4082 23.5436L30.4235 25.7526C30.4285 26.9663 30.4235 27.9717 30.4082 27.987ZM27.8844 25.7729L27.8945 26.7784H27.3106H26.7266V25.7627V24.742L27.3004 24.7573L27.8691 24.7725L27.8844 25.7729Z" fill="white"/>
<path d="M32.7714 23.2343C32.5632 23.4578 32.6698 23.7269 33.0355 23.9148C33.5077 24.1586 33.8835 24.6207 34.0511 25.1691C34.3355 26.1035 33.8987 27.1648 33.0355 27.6523C32.6495 27.8707 32.5733 28.0636 32.7765 28.3226C32.9136 28.4953 33.071 28.4902 33.4366 28.2972C34.0003 27.9925 34.5234 27.3679 34.7519 26.7128C34.9042 26.2761 34.9398 25.5906 34.8331 25.1336C34.6605 24.3972 34.1069 23.6406 33.4823 23.2851C33.1523 23.0921 32.9187 23.0769 32.7714 23.2343Z" fill="white"/>
<path d="M32.1257 24.4934C31.9988 24.5442 31.9074 24.6915 31.9074 24.8438C31.9074 24.8997 32.0089 25.0622 32.1359 25.1993C32.5066 25.6208 32.4964 26.0372 32.1105 26.3876C31.8718 26.6008 31.8414 26.7989 32.0242 26.9715C32.2933 27.2255 32.7351 26.9919 33.0093 26.4536C33.2988 25.8848 33.2023 25.245 32.7554 24.7727C32.4812 24.4883 32.3187 24.4122 32.1257 24.4934Z" fill="white"/>
<path d="M21.2027 13.5583C21.0859 13.604 20.9792 13.8833 21.0148 14.061C21.1062 14.5536 21.7511 14.4673 21.7511 13.9595C21.7511 13.6345 21.4921 13.4415 21.2027 13.5583Z" fill="white"/>
</g>
<defs>
<clipPath id="clip0_5593_15347">
<rect width="26.0001" height="26" fill="white" transform="translate(12 12)"/>
</clipPath>
</defs>
</svg>
